<?xml version="1.0" encoding="utf-8"?>
<!-- Generator: Adobe Illustrator 16.0.0, SVG Export Plug-In . SVG Version: 6.00 Build 0)  -->
<!DOCTYPE svg PUBLIC "-//W3C//DTD SVG 1.1//EN" "http://www.w3.org/Graphics/SVG/1.1/DTD/svg11.dtd">
<svg version="1.1" id="Ebene_1" xmlns="http://www.w3.org/2000/svg" xmlns:xlink="http://www.w3.org/1999/xlink" x="0px" y="0px"
	 width="436.54px" height="75.52px" viewBox="0 0 436.54 75.52" enable-background="new 0 0 436.54 75.52" xml:space="preserve">
<path d="M83.221,29.578c-2.71,1.077-6.462,2.262-10.776,3.444c-0.731-0.507-1.491-1.017-2.274-1.53
	c-1.433-0.956-2.904-1.878-4.396-2.752c0.48-0.005,0.982-0.008,1.442-0.015c4.798-0.044,8.464,0.072,9.948,0.072
	C79.988,28.797,81.911,29.009,83.221,29.578 M64.302,23.729c-2.493,0.013-5.028,0.029-7.562,0.043
	c-3.618-1.808-7.442-3.502-11.373-5.007c4.054-3.522,8.085-6.358,11.72-8.539c7.747-4.649,15.47-4.321,12.739,2.348
	C68.188,16.573,64.302,23.729,64.302,23.729 M43.406,20.574c2.659,1.023,5.548,2.063,8.012,3.232
	c-2.325,0.011-5.43,0.023-7.141,0.011c-1.03-0.006-2.677-0.036-4.12-0.042c0,0,0.512-0.615,0.827-0.931
	C41.789,22.038,42.598,21.321,43.406,20.574 M60.268,28.784c0.224,0.128,0.51,0.259,0.731,0.387
	c-1.548,2.502-3.287,5.118-5.125,7.756c-7.564,1.533-15.296,2.877-21.79,3.366c-1.91,0.141-5.933,0.629-7.574,0.078
	c-0.669-0.225,0.924-2.399,2.301-4.143c1.322-1.674,3.652-4.379,6.516-7.481L60.268,28.784z M37.408,18.503l-4.871,4.969
	c-10.833-0.802-16.659-2.948-18.217-5.685c2.161-2.538,7.661-3.651,21.681,0.276C36.468,18.194,36.939,18.359,37.408,18.503
	 M59.983,36.064c1.182-1.792,2.312-3.614,3.396-5.476c0.79,0.476,1.568,0.955,2.335,1.432c0.715,0.452,1.764,1.13,3.012,1.984
	C65.948,34.711,63.001,35.405,59.983,36.064 M58.08,38.935c4.612-0.953,9.071-2.069,13.188-3.137
	c3.971,2.892,8.854,6.848,11.836,10.897c3.142,4.266,2.578,6.639,2.578,6.639c-1.229,2.15-3.856,3.988-9.563,4.125
	c-0.199,0.006-0.401,0.004-0.605,0.004c-6.763,0-17.09-1.189-28.959-3.93C50.458,49.07,54.418,44.184,58.08,38.935 M89.484,27.845
	c0.013-0.193-0.01-0.779-0.141-1.122c-0.642-1.68-2.357-2.121-2.587-2.2c-1.172-0.41-3.193-0.544-5.189-0.645
	c-3.913-0.195-14.313-0.161-14.313-0.161s4.68-9.217,6.29-12.978C80.781-6.179,61.724,0.482,52.775,6.547
	c-4.376,2.965-8.474,5.56-13.428,10.118c-1.576-0.5-3.157-0.987-4.749-1.402c-16.318-4.273-20.441-1.515-22.076,1.853
	c-1.408,2.9,0.108,5.917,0.126,5.952c0.022,0.041,0.042,0.08,0.065,0.121c1.298,2.357,4.092,4.351,9.583,5.003
	c1.324,0.156,3.277,0.277,5.64,0.37c-0.823,0.944-1.656,1.913-2.507,2.923c-2.862,3.397-3.322,4.336-4.238,5.904
	c-2.339,3.997,1.619,5.764,4.881,5.954c2.693,0.158,7.372-0.301,9.854-0.641c5.315-0.73,11.599-1.703,17.935-2.928
	c-3.278,4.564-6.756,9.088-10.006,13.115c-13.772-3.391-29.358-8.836-43.85-16.946l1.783,3.399c0,0,15.677,11.104,38.051,18.406
	c-1.628,1.922-3.133,3.635-4.434,5.049c0,0-0.469,1.42-1.442,4.223c2.488-2.543,5.267-5.414,8.156-8.543
	c9.008,2.775,19.008,5.125,29.461,5.434c0.161,0.006,0.32,0.02,0.482,0.025c17.382,0.686,17.741-8.133,16.147-13.324
	c-0.342-1.113-0.987-2.461-2.102-4.223c-0.002-0.004-0.005-0.01-0.007-0.014c-2.381-3.719-6.407-7.825-11.395-11.645
	c4.814-1.437,9.333-2.657,11.739-3.929C88.034,29.961,89.398,29.056,89.484,27.845 M126.87,39.977c0-3.026,2.479-6.941,7.144-6.941
	c4.831,0,8.693,1.745,10.985,6.398l2.169-0.023l-1.556-8.59h-1.534c-0.583,0.62-1.093,0.826-2.041,0.826
	c-1.24,0-1.828-0.277-3.285-0.55c-1.458-0.276-3.208-0.551-5.614-0.551c-7.8,0-13.34,5.429-13.34,11.344
	c0,11.967,22.964,13.582,22.964,23.209c0,4.127-3.718,7.518-9.041,7.518c-5.829,0-11.16-2.096-13.326-7.475l-1.982-0.002
	l1.609,9.615h1.75c0.511-0.549,1.094-0.756,1.969-0.756c2.041,0,5.024,1.527,10.492,1.527c9.332,0,15.817-5.393,15.817-12.477
	C150.05,49.775,126.87,49.193,126.87,39.977 M168.523,66.387V53.883h9.25c3.004,0,4.089,0.436,4.63,3.439h2.028v-9.945h-1.964
	c-0.464,3.063-1.459,3.416-4.694,3.416h-9.25V34.784h11.486c3.81,0,5.014,0.117,6.186,4.411l2.191-0.002l-0.638-7.5h-30.635v1.909
	c2.797,0.186,4.164,1.008,4.164,4.619v29.61c0,3.172-0.89,4.334-4.164,4.646v1.947h32.225l0.93-8.652l-2.184,0.018
	c-1.529,4.795-3.23,5.545-9.044,5.545h-6.667C169.045,71.334,168.523,70.648,168.523,66.387 M243.066,33.606v-1.914h-11.819v1.891
	c3.704,0.214,4.274,1.443,4.274,5.881v24.623l-28.528-32.395h-6.142h-3.244h-1.044v1.857c1.911,0.202,3.036,0.737,4.237,2.11v0.854
	l-0.012-0.005v30.191c0,4.066-0.646,5.738-4.226,5.904v1.867h11.818v-1.852c-3.617-0.281-4.074-2.213-4.074-6.746v-26.41
	l31.278,35.42h3.455V39.604C239.04,35.093,240.042,33.86,243.066,33.606 M271.782,54.936h-13.441l6.83-17.52L271.782,54.936z
	 M273.48,74.428h15.92v-1.832c-3.327-0.154-4.046-1.244-5.827-6.006l-13.139-34.897h-7.546l0.826,2.248L250.659,66.59
	c-1.838,4.58-2.845,5.742-6.191,5.977v1.861h12v-1.85c-2.745-0.238-3.526-1.096-3.526-2.572c0-0.668,0.202-1.541,0.674-2.813
	l3.445-8.908h16.003l3.234,8.305c0.673,1.742,0.942,2.879,0.942,3.551c0,1.502-0.895,2.162-3.76,2.383V74.428z M298.341,52.072
	c0-11.621,6.482-19.327,16.204-19.327c6.282,0,12.093,2.938,14.805,8.401l1.909-0.031l-0.251-8.783h-1.621
	c-0.323,0.345-0.648,0.483-1.166,0.483c-1.879,0-6.87-2.271-13.937-2.271c-16.397,0-23.785,11.623-23.785,23.316
	c0,12.311,8.168,21.664,23.268,21.664c5.51,0,9.98-1.582,12.897-1.582c0.974,0,1.428,0.137,2.205,0.48l3.14-8.934l-2.333,0.029
	c-3.582,4.885-8.508,7.531-13.966,7.531C305.796,73.051,298.341,64.109,298.341,52.072 M373.543,54
	c0,11.553-5.892,19.324-14.697,19.324c-8.045,0-16.219-7.152-16.219-20.977c0-12.035,5.829-19.602,14.951-19.602
	C366.89,32.746,373.543,41.551,373.543,54 M381.208,52.279c0-12.861-9.438-21.734-23.124-21.734
	c-13.429,0-23.122,9.906-23.122,23.66c0,12.311,9.63,21.32,22.869,21.32C372.085,75.525,381.208,64.66,381.208,52.279
	 M398.815,54.963c-0.408,0-1.7-0.139-2.177-0.207V33.228c0.612-0.137,2.246-0.276,3.267-0.276c7.423,0,11.1,4.126,11.1,11.075
	C411.005,51.041,407.873,54.549,398.815,54.963 M436.54,75.182v-1.926c-5.652-0.619-10.281-3.369-16.343-9.492l-4.426-4.469
	c-1.089-1.102-4.018-3.99-5.106-4.746c5.721-2.408,8.58-6.121,8.58-11.211c0-6.259-4.698-12.311-18.453-12.311
	c-1.362,0-4.698,0-8.308,0.137c-3.441,0.15-6.223,0.339-8.082,0.429v1.953c4.079,0.239,4.679,1.544,4.679,5.529v27.58
	c0,4.021-0.485,5.721-4.574,5.912v1.857h16.751v-1.857c-4.065-0.205-4.619-1.734-4.619-6.807v-9.078
	c1.769,0.205,4.085,0.137,6.059,0c2.861,2.131,3.882,3.094,7.354,6.602l3.609,3.646C419.789,73.119,423.126,75.525,436.54,75.182"/>
</svg>
